<?xml version="1.0" encoding="utf-8"?>
<!-- Generator: Adobe Illustrator 16.0.0, SVG Export Plug-In . SVG Version: 6.00 Build 0)  -->
<!DOCTYPE svg PUBLIC "-//W3C//DTD SVG 1.1//EN" "http://www.w3.org/Graphics/SVG/1.1/DTD/svg11.dtd">
<svg version="1.1" id="Layer_1" xmlns="http://www.w3.org/2000/svg" xmlns:xlink="http://www.w3.org/1999/xlink" x="0px" y="0px"
	 width="30px" height="37.747px" viewBox="0 0 30 37.747" enable-background="new 0 0 30 37.747" xml:space="preserve">
<g>
	<g>
		<path fill="#A09F9F" d="M2.19,35.538l-0.416,2.104H0.229l1.926-8.753h1.889l1.748,8.753H4.239l-0.408-2.104H2.19z M3.681,34.301
			l-0.321-1.896c-0.094-0.548-0.208-1.4-0.293-1.991H3.033C2.938,31.01,2.807,31.887,2.71,32.41l-0.344,1.892H3.681z"/>
		<path fill="#A09F9F" d="M10.887,28.655v7.172c0,0.57,0.028,1.267,0.054,1.814H9.57L9.48,36.912H9.446
			c-0.229,0.45-0.729,0.835-1.323,0.835c-1.31,0-1.96-1.44-1.96-3.261c0-2.214,0.971-3.292,2.024-3.292
			c0.548,0,0.91,0.27,1.087,0.656H9.3v-3.195H10.887z M9.3,33.73c0-0.113,0-0.252-0.023-0.375c-0.061-0.432-0.293-0.824-0.663-0.824
			c-0.632,0-0.867,0.917-0.867,1.984c0,1.229,0.335,1.931,0.843,1.931c0.238,0,0.509-0.122,0.654-0.639
			c0.037-0.102,0.055-0.24,0.055-0.4V33.73z"/>
		<path fill="#A09F9F" d="M14.152,37.747c-1.455,0-2.373-1.17-2.373-3.26c0-2.281,1.177-3.293,2.408-3.293
			c1.444,0,2.347,1.225,2.347,3.257c0,2.61-1.416,3.296-2.368,3.296H14.152z M14.183,36.536c0.602,0,0.756-1.135,0.756-2.077
			c0-0.893-0.154-2.057-0.781-2.057c-0.671,0-0.812,1.164-0.812,2.057c0,1.078,0.179,2.077,0.824,2.077H14.183z"/>
		<path fill="#A09F9F" d="M17.418,28.655h1.584v3.305h0.025c0.311-0.486,0.727-0.766,1.331-0.766c1.195,0,1.796,1.352,1.796,3.117
			c0,2.237-0.897,3.436-2.054,3.436c-0.556,0-0.923-0.245-1.255-0.864h-0.032l-0.089,0.759h-1.357
			c0.023-0.527,0.052-1.244,0.052-1.814V28.655z M19.002,35.377c0,0.157,0.027,0.306,0.062,0.404
			c0.157,0.532,0.429,0.664,0.643,0.664c0.612,0,0.863-0.773,0.863-2.014c0-1.124-0.266-1.901-0.869-1.901
			c-0.301,0-0.554,0.327-0.642,0.675c-0.029,0.11-0.057,0.279-0.057,0.401V35.377z"/>
		<path fill="#A09F9F" d="M24.347,34.979c0.018,1.149,0.625,1.523,1.376,1.523c0.479,0,0.889-0.105,1.19-0.221l0.216,1.135
			c-0.422,0.182-1.07,0.293-1.694,0.293c-1.701,0-2.625-1.154-2.625-3.133c0-2.121,1.072-3.391,2.481-3.391
			c1.359,0,2.112,1.122,2.112,2.964c0,0.417-0.019,0.652-0.048,0.838L24.347,34.979z M25.947,33.866
			c0.005-0.892-0.253-1.519-0.756-1.519c-0.577,0-0.818,0.839-0.837,1.519H25.947z"/>
		<polygon fill="#A09F9F" points="17.276,0.043 27.403,0.043 27.403,24.202 		"/>
		<polygon fill="#A09F9F" points="10.139,0.043 0,0.043 0,24.202 		"/>
		<polygon fill="#A09F9F" points="13.704,8.946 20.16,24.202 15.93,24.202 13.997,19.342 9.274,19.342 		"/>
	</g>
	<path fill="#A09F9F" d="M29.065,0C29.584,0,30,0.419,30,0.938c0,0.528-0.416,0.948-0.939,0.948c-0.527,0-0.949-0.42-0.949-0.948
		C28.112,0.419,28.534,0,29.061,0H29.065z M29.061,0.159c-0.416,0-0.751,0.349-0.751,0.782c0,0.438,0.335,0.785,0.756,0.785
		c0.414,0.004,0.746-0.348,0.746-0.785c0-0.434-0.332-0.782-0.746-0.782H29.061z M28.888,1.487H28.7V0.441
		c0.088-0.013,0.176-0.031,0.314-0.031c0.169,0,0.272,0.034,0.34,0.085c0.06,0.044,0.093,0.117,0.093,0.218
		c0,0.134-0.088,0.22-0.202,0.25v0.008c0.092,0.016,0.152,0.1,0.172,0.256c0.024,0.164,0.046,0.226,0.062,0.259h-0.193
		c-0.024-0.034-0.045-0.13-0.066-0.268c-0.022-0.126-0.092-0.176-0.223-0.176h-0.11V1.487z M28.888,0.895h0.115
		c0.138,0,0.25-0.044,0.25-0.165c0-0.093-0.067-0.177-0.242-0.177c-0.055,0-0.093,0-0.123,0.005V0.895z"/>
</g>
</svg>
